<?xml version="1.0" encoding="UTF-8"?> <!-- Creator: CorelDRAW 2018 --> <svg xmlns="http://www.w3.org/2000/svg" xmlns:xlink="http://www.w3.org/1999/xlink" xml:space="preserve" width="39.7082mm" height="18.1291mm" style="shape-rendering:geometricPrecision; text-rendering:geometricPrecision; image-rendering:optimizeQuality; fill-rule:evenodd; clip-rule:evenodd" viewBox="0 0 1115.29 509.19"> <defs> <style type="text/css"> <![CDATA[ .fil2 {fill:#004A7F} .fil1 {fill:#009FE3} .fil0 {fill:#004A7F;fill-rule:nonzero} ]]> </style> </defs> <g id="Layer_x0020_1"> <metadata id="CorelCorpID_0Corel-Layer"></metadata> <g id="_808746008"> <path class="fil0" d="M1074.02 232.63c12.92,6.74 23.02,16 30.32,27.79 7.29,11.79 10.95,25.4 10.95,40.84 0,24.14 -8.56,44.21 -25.69,60.21 -17.12,16 -38.04,24 -62.74,24l-126.32 0 0 -294.74 117.05 0c24.14,0 44.56,7.79 61.26,23.37 16.7,15.58 25.05,35.02 25.05,58.31 0,25.55 -9.97,45.62 -29.9,60.21zm-47.15 107.37c11.23,0 20.7,-4 28.42,-12 7.72,-8 11.58,-17.75 11.58,-29.26 0,-11.51 -3.86,-21.26 -11.58,-29.27 -7.72,-8 -17.19,-12 -28.42,-12l-77.9 0 0 82.53 77.9 0zm-9.27 -203.79l-68.63 0 0 77.48 68.63 0c10.67,0 19.65,-3.72 26.95,-11.16 7.29,-7.44 10.95,-16.63 10.95,-27.58 0,-10.95 -3.65,-20.14 -10.95,-27.58 -7.3,-7.44 -16.28,-11.16 -26.95,-11.16z"></path> <path class="fil0" d="M745.55 390.95c-44.35,0 -81.12,-14.67 -110.32,-44 -29.2,-29.33 -43.79,-65.61 -43.79,-108.84 0,-43.23 14.59,-79.51 43.79,-108.85 29.19,-29.33 65.97,-44 110.32,-44 26.67,0 51.3,6.32 73.9,18.95 22.59,12.63 40.21,29.76 52.84,51.37l-42.1 24.42c-7.86,-14.6 -19.3,-26.18 -34.32,-34.74 -15.02,-8.56 -31.79,-12.84 -50.32,-12.84 -31.44,0 -56.91,9.97 -76.42,29.89 -19.5,19.93 -29.26,45.2 -29.26,75.8 0,30.59 9.76,55.86 29.26,75.79 19.51,19.93 44.99,29.89 76.42,29.89 18.53,0 35.37,-4.28 50.53,-12.84 15.16,-8.56 26.53,-20.14 34.1,-34.74l42.1 24c-12.35,21.61 -29.82,38.81 -52.42,51.58 -22.6,12.78 -47.37,19.16 -74.32,19.16z"></path> <polygon class="fil0" points="598.97,90.74 598.97,137.05 516.03,137.05 516.03,385.48 467.6,385.48 467.6,137.05 384.23,137.05 394.68,90.74 "></polygon> <g> <path class="fil1" d="M296.97 389.44l-91.1 -17.78c-7.47,32.52 -15,65.1 -22.5,97.73 30.02,6.44 60.43,12.97 91.11,19.56 31.03,6.66 62.55,13.42 94.43,20.25 7.49,-33.8 14.97,-67.64 22.42,-101.29 7.42,-33.54 14.83,-67.05 22.21,-100.49 -31.81,-5.58 -63.27,-11.14 -94.34,-16.64 -7.39,32.86 -14.81,65.71 -22.24,98.67z"></path> <path class="fil2" d="M205.88 371.65c7.43,-32.38 14.86,-64.72 22.32,-96.95 29.96,5.31 60.31,10.68 91.02,16.07 21.94,-96.91 43.8,-193.84 65.64,-290.77l-384.85 331.42 205.88 40.23z"></path> </g> </g> </g> </svg> 